<svg width="76" height="16" viewBox="0 0 76 16" fill="none" xmlns="http://www.w3.org/2000/svg">
<g id="Type">
<g id="EventUp">
<path d="M2.34826 1.89408V4.80166H6.28999V6.6459H2.34826V9.71963H6.79319V11.6137H0V0H6.79319V1.89408H2.34826Z" fill="black"/>
<path d="M12.8018 9.4704L15.1501 2.40914H17.6493L14.2108 11.6137H11.3593L7.93758 2.40914H10.4536L12.8018 9.4704Z" fill="black"/>
<path d="M27.6065 6.81205C27.6065 7.14434 27.5842 7.44341 27.5394 7.70924H20.7462C20.8021 8.37383 21.037 8.89443 21.4507 9.27103C21.8645 9.64763 22.3732 9.83593 22.9771 9.83593C23.8493 9.83593 24.4699 9.46487 24.8389 8.72274H27.3717C27.1033 9.60886 26.5889 10.3399 25.8286 10.9159C25.0682 11.4808 24.1344 11.7632 23.0274 11.7632C22.1328 11.7632 21.3277 11.5694 20.612 11.1817C19.9076 10.783 19.354 10.2236 18.9515 9.50363C18.5601 8.78366 18.3644 7.95292 18.3644 7.01142C18.3644 6.05884 18.5601 5.22257 18.9515 4.5026C19.3429 3.78262 19.8908 3.2288 20.5953 2.84112C21.2998 2.45344 22.1105 2.25961 23.0274 2.25961C23.9108 2.25961 24.6991 2.44791 25.3924 2.82451C26.0969 3.20111 26.6393 3.73832 27.0195 4.43614C27.4108 5.12288 27.6065 5.91485 27.6065 6.81205ZM25.1744 6.14746C25.1632 5.54932 24.9452 5.07304 24.5202 4.71859C24.0953 4.35306 23.5753 4.1703 22.9603 4.1703C22.3788 4.1703 21.8868 4.34753 21.4843 4.70197C21.0929 5.04534 20.8525 5.52717 20.763 6.14746H25.1744Z" fill="black"/>
<path d="M34.47 2.27622C35.577 2.27622 36.4716 2.62513 37.1537 3.32295C37.8358 4.00969 38.1769 4.97335 38.1769 6.21391V11.6137H35.8286V6.52959C35.8286 5.79855 35.6441 5.23918 35.2751 4.85151C34.9061 4.45275 34.4029 4.25338 33.7655 4.25338C33.1169 4.25338 32.6025 4.45275 32.2223 4.85151C31.8533 5.23918 31.6688 5.79855 31.6688 6.52959V11.6137H29.3205V2.40914H31.6688V3.55556C31.9819 3.1568 32.3789 2.84666 32.8597 2.62513C33.3517 2.39252 33.8885 2.27622 34.47 2.27622Z" fill="black"/>
<path d="M43.144 4.31983V8.77259C43.144 9.08273 43.2167 9.3098 43.362 9.45379C43.5186 9.58671 43.7758 9.65317 44.1336 9.65317H45.2239V11.6137H43.7478C41.7686 11.6137 40.7789 10.6611 40.7789 8.75597V4.31983H39.6719V2.40914H40.7789V0.132918H43.144V2.40914H45.2239V4.31983H43.144Z" fill="black"/>
<path d="M49.2276 0.0166155V7.19418C49.2276 7.98062 49.4345 8.58428 49.8482 9.00519C50.2619 9.41502 50.8434 9.61994 51.5926 9.61994C52.353 9.61994 52.9401 9.41502 53.3538 9.00519C53.7676 8.58428 53.9744 7.98062 53.9744 7.19418V0.0166155H56.3395V7.17757C56.3395 8.16338 56.1214 8.99965 55.6853 9.6864C55.2604 10.3621 54.6845 10.8716 53.9577 11.215C53.242 11.5583 52.4425 11.73 51.5591 11.73C50.6869 11.73 49.8929 11.5583 49.1773 11.215C48.4728 10.8716 47.9137 10.3621 47.4999 9.6864C47.0862 8.99965 46.8793 8.16338 46.8793 7.17757V0.0166155H49.2276Z" fill="black"/>
<path d="M60.9566 3.73832C61.2585 3.31741 61.6723 2.9685 62.1978 2.69159C62.7346 2.4036 63.344 2.25961 64.0261 2.25961C64.8201 2.25961 65.5357 2.45344 66.1731 2.84112C66.8217 3.2288 67.3305 3.78262 67.6995 4.5026C68.0797 5.21149 68.2698 6.03669 68.2698 6.97819C68.2698 7.91969 68.0797 8.75597 67.6995 9.48702C67.3305 10.207 66.8217 10.7664 66.1731 11.1651C65.5357 11.5639 64.8201 11.7632 64.0261 11.7632C63.344 11.7632 62.7402 11.6248 62.2146 11.3479C61.7002 11.071 61.2809 10.722 60.9566 10.3011V16H58.6083V2.40914H60.9566V3.73832ZM65.8712 6.97819C65.8712 6.42437 65.7538 5.94808 65.5189 5.54933C65.2953 5.13949 64.9934 4.82935 64.6132 4.6189C64.2442 4.40845 63.8416 4.30322 63.4055 4.30322C62.9806 4.30322 62.578 4.41398 62.1978 4.63551C61.8288 4.84597 61.5269 5.15611 61.2921 5.56594C61.0684 5.97577 60.9566 6.4576 60.9566 7.01142C60.9566 7.56525 61.0684 8.04708 61.2921 8.45691C61.5269 8.86674 61.8288 9.18242 62.1978 9.40395C62.578 9.6144 62.9806 9.71963 63.4055 9.71963C63.8416 9.71963 64.2442 9.60886 64.6132 9.38733C64.9934 9.1658 65.2953 8.85012 65.5189 8.44029C65.7538 8.03046 65.8712 7.54309 65.8712 6.97819Z" fill="black"/>
</g>
<ellipse id="Ellipse 1" cx="74.3226" cy="8.30723" rx="1.67733" ry="1.66147" fill="black"/>
</g>
</svg>
