<svg width="91" height="20" viewBox="0 0 91 20" fill="none" xmlns="http://www.w3.org/2000/svg">
<g id="Type">
<g id="EventUp">
<path d="M2.8 2.28V5.78H7.5V8H2.8V11.7H8.1V13.98H0V0H8.1V2.28H2.8Z" fill="white"/>
<path d="M15.2645 11.4L18.0645 2.9H21.0445L16.9445 13.98H13.5445L9.46453 2.9H12.4645L15.2645 11.4Z" fill="white"/>
<path d="M32.9172 8.2C32.9172 8.6 32.8905 8.96 32.8372 9.28H24.7372C24.8039 10.08 25.0839 10.7067 25.5772 11.16C26.0705 11.6133 26.6772 11.84 27.3972 11.84C28.4372 11.84 29.1772 11.3933 29.6172 10.5H32.6372C32.3172 11.5667 31.7039 12.4467 30.7972 13.14C29.8905 13.82 28.7772 14.16 27.4572 14.16C26.3905 14.16 25.4305 13.9267 24.5772 13.46C23.7372 12.98 23.0772 12.3067 22.5972 11.44C22.1305 10.5733 21.8972 9.57333 21.8972 8.44C21.8972 7.29333 22.1305 6.28667 22.5972 5.42C23.0639 4.55333 23.7172 3.88667 24.5572 3.42C25.3972 2.95333 26.3639 2.72 27.4572 2.72C28.5105 2.72 29.4505 2.94667 30.2772 3.4C31.1172 3.85333 31.7639 4.5 32.2172 5.34C32.6839 6.16667 32.9172 7.12 32.9172 8.2ZM30.0172 7.4C30.0039 6.68 29.7439 6.10667 29.2372 5.68C28.7305 5.24 28.1105 5.02 27.3772 5.02C26.6839 5.02 26.0972 5.23333 25.6172 5.66C25.1505 6.07333 24.8639 6.65333 24.7572 7.4H30.0172Z" fill="white"/>
<path d="M41.1009 2.74C42.4209 2.74 43.4876 3.16 44.3009 4C45.1143 4.82667 45.5209 5.98667 45.5209 7.48V13.98H42.7209V7.86C42.7209 6.98 42.5009 6.30667 42.0609 5.84C41.6209 5.36 41.0209 5.12 40.2609 5.12C39.4876 5.12 38.8743 5.36 38.4209 5.84C37.9809 6.30667 37.7609 6.98 37.7609 7.86V13.98H34.9609V2.9H37.7609V4.28C38.1343 3.8 38.6076 3.42667 39.1809 3.16C39.7676 2.88 40.4076 2.74 41.1009 2.74Z" fill="white"/>
<path d="M51.4436 5.2V10.56C51.4436 10.9333 51.5303 11.2067 51.7036 11.38C51.8903 11.54 52.1969 11.62 52.6236 11.62H53.9236V13.98H52.1636C49.8036 13.98 48.6236 12.8333 48.6236 10.54V5.2H47.3036V2.9H48.6236V0.16H51.4436V2.9H53.9236V5.2H51.4436Z" fill="white"/>
<path d="M58.6975 0.0200009V8.66C58.6975 9.60667 58.9442 10.3333 59.4375 10.84C59.9308 11.3333 60.6242 11.58 61.5175 11.58C62.4242 11.58 63.1242 11.3333 63.6175 10.84C64.1108 10.3333 64.3575 9.60667 64.3575 8.66V0.0200009H67.1775V8.64C67.1775 9.82667 66.9175 10.8333 66.3975 11.66C65.8908 12.4733 65.2042 13.0867 64.3375 13.5C63.4842 13.9133 62.5308 14.12 61.4775 14.12C60.4375 14.12 59.4908 13.9133 58.6375 13.5C57.7975 13.0867 57.1308 12.4733 56.6375 11.66C56.1442 10.8333 55.8975 9.82667 55.8975 8.64V0.0200009H58.6975Z" fill="white"/>
<path d="M72.6828 4.5C73.0428 3.99333 73.5361 3.57333 74.1628 3.24C74.8028 2.89333 75.5295 2.72 76.3428 2.72C77.2895 2.72 78.1428 2.95333 78.9028 3.42C79.6761 3.88667 80.2828 4.55333 80.7228 5.42C81.1761 6.27333 81.4028 7.26667 81.4028 8.4C81.4028 9.53333 81.1761 10.54 80.7228 11.42C80.2828 12.2867 79.6761 12.96 78.9028 13.44C78.1428 13.92 77.2895 14.16 76.3428 14.16C75.5295 14.16 74.8095 13.9933 74.1828 13.66C73.5695 13.3267 73.0695 12.9067 72.6828 12.4V19.26H69.8828V2.9H72.6828V4.5ZM78.5428 8.4C78.5428 7.73333 78.4028 7.16 78.1228 6.68C77.8561 6.18667 77.4961 5.81333 77.0428 5.56C76.6028 5.30667 76.1228 5.18 75.6028 5.18C75.0961 5.18 74.6161 5.31333 74.1628 5.58C73.7228 5.83333 73.3628 6.20667 73.0828 6.7C72.8161 7.19333 72.6828 7.77333 72.6828 8.44C72.6828 9.10667 72.8161 9.68667 73.0828 10.18C73.3628 10.6733 73.7228 11.0533 74.1628 11.32C74.6161 11.5733 75.0961 11.7 75.6028 11.7C76.1228 11.7 76.6028 11.5667 77.0428 11.3C77.4961 11.0333 77.8561 10.6533 78.1228 10.16C78.4028 9.66667 78.5428 9.08 78.5428 8.4Z" fill="white"/>
</g>
<circle id="Ellipse 1" cx="88.6201" cy="10" r="2" fill="white"/>
</g>
</svg>
